# xmcd
#
# Track frame offsets:
#	150
#	17912
#	33972
#	50790
#	68204
#	85347
#	102167
#	125427
#	143779
#	157674
#	172073
#	189540
#	206781
#
# Disc length: 3021 seconds
#
# Revision: 0
# Processed by: cddbd v1.4PL0 Copyright (c) Steve Scherf et al.
# Submitted via: dBpowerAMP V4.0
#
DISCID=b50bcb0d
DTITLE=Carolyn Dawn Johnson - Room With A View
DYEAR=2001
DGENRE=Country
TTITLE0=Georgia
TTITLE1=Just Another Girl
TTITLE2=I'll Think Of You That Way
TTITLE3=Love Is Always Worth The Ache
TTITLE4=Complicated
TTITLE5=I Don't Want You To Go
TTITLE6=You Are
TTITLE7=Masterpiece
TTITLE8=Little Bit Of This, Little Bit Of That
TTITLE9=One Day Closer To You
TTITLE10=Room With A View
TTITLE11=Tumble And Roll
TTITLE12=Not Enough To Stay
EXTD=
EXTT0=
EXTT1=
EXTT2=
EXTT3=
EXTT4=
EXTT5=
EXTT6=
EXTT7=
EXTT8=
EXTT9=
EXTT10=
EXTT11=
EXTT12=
PLAYORDER=
